<svg xmlns="http://www.w3.org/2000/svg" viewBox="-1 -1 210.6 66" role="img" aria-labelledby="lt">
  <title id="lt">CNPJ Consulta</title>
  <defs>
    <linearGradient id="lg" x1="10" y1="54" x2="54" y2="10" gradientUnits="userSpaceOnUse">
      <stop offset="0" stop-color="#22d3ee"/><stop offset="1" stop-color="#8b5cf6"/>
    </linearGradient>
    <radialGradient id="lh" cx=".18" cy=".08" r=".95"><stop offset="0" stop-color="#fff" stop-opacity=".22"/><stop offset=".6" stop-color="#fff" stop-opacity="0"/></radialGradient>
  </defs>
  <rect width="64" height="64" rx="16" fill="#0f1424"/>
  <rect width="64" height="64" rx="16" fill="url(#lh)"/>
  <rect x=".6" y=".6" width="62.8" height="62.8" rx="15.4" fill="none" stroke="#fff" stroke-opacity=".14" stroke-width="1.2"/>
  <g fill="none" stroke-linecap="round" stroke-linejoin="round">
    <circle cx="36" cy="28" r="14" stroke="url(#lg)" stroke-width="6"/>
    <path d="M25.5 38.5 14.5 49.5" stroke="url(#lg)" stroke-width="7"/>
    <path d="M29.6 28.2l4.6 4.6 8.2-9.6" stroke="#34d399" stroke-width="3.6"/>
  </g>
  <g transform="translate(84 0)">
  <g transform="translate(0 7)">
    <g fill="none" stroke="#eef1f7" stroke-width="6" stroke-linecap="round" stroke-linejoin="round">
      <path transform="translate(0 0)" d="M23.9 7A12 12 0 1 0 23.9 23"/>
      <path transform="translate(32.3 0)" d="M3 27V3L25 27V3"/>
      <path transform="translate(67.7 0)" d="M3 27V3H15A7.5 7.5 0 0 1 15 18H3"/>
      <path transform="translate(99.6 0)" d="M22 3V18A9 9 0 0 1 4 18"/>
    </g>
    <g transform="translate(0 40)" fill="none" stroke="#22d3ee" stroke-width="2.4" stroke-linecap="round" stroke-linejoin="round">
      <path transform="translate(0 0)" d="M7.82 2.46A3.8 3.8 0 1 0 7.82 7.54"/>
      <path transform="translate(15.82 0)" d="M5 1.2A3.8 3.8 0 1 0 5 8.8A3.8 3.8 0 1 0 5 1.2Z"/>
      <path transform="translate(32.61 0)" d="M1.2 8.8V1.2L8.8 8.8V1.2"/>
      <path transform="translate(49.41 0)" d="M7.1 2.9C6.5 1.8 5.5 1.2 4.3 1.2C2.7 1.2 1.5 2.1 1.5 3.3C1.5 4.6 2.7 4.8 4.3 5C5.9 5.2 7.1 5.6 7.1 6.8C7.1 8 5.9 8.8 4.3 8.8C3 8.8 1.9 8.3 1.3 7.2"/>
      <path transform="translate(64.81 0)" d="M1.2 1.2V5A3.8 3.8 0 0 0 8.8 5V1.2"/>
      <path transform="translate(81.61 0)" d="M1.2 1.2V8.8H8.2"/>
      <path transform="translate(97.8 0)" d="M1.2 1.2H8.8M5 1.2V8.8"/>
      <path transform="translate(114.6 0)" d="M1.2 8.8L5 1.2L8.8 8.8M2.9 6.3H7.1"/>
    </g>
  </g>
  </g>
</svg>
